<?xml version="1.0" encoding="utf-8"?>
<!-- Generator: Adobe Illustrator 21.0.2, SVG Export Plug-In . SVG Version: 6.00 Build 0)  -->
<svg version="1.1" id="Слой_1" xmlns="http://www.w3.org/2000/svg" xmlns:xlink="http://www.w3.org/1999/xlink" x="0px" y="0px"
	 viewBox="0 0 74 53" style="enable-background:new 0 0 74 53;" xml:space="preserve">
<style type="text/css">
	.st0{fill:url(#XMLID_2_);}
	.st1{fill:url(#XMLID_3_);}
	.st2{fill:url(#XMLID_4_);}
	.st3{fill:url(#XMLID_5_);}
	.st4{fill:url(#XMLID_6_);}
</style>
<g id="XMLID_81_">
	
		<linearGradient id="XMLID_2_" gradientUnits="userSpaceOnUse" x1="-23.6156" y1="-16369.9492" x2="106.3565" y2="-16308.9746" gradientTransform="matrix(1 0 0 -1 0 -16330)">
		<stop  offset="0" style="stop-color:#B5100D"/>
		<stop  offset="2.630052e-02" style="stop-color:#C41C1E"/>
		<stop  offset="6.584848e-02" style="stop-color:#D42931"/>
		<stop  offset="0.1066" style="stop-color:#DE313C"/>
		<stop  offset="0.15" style="stop-color:#E13440"/>
		<stop  offset="0.3" style="stop-color:#E98A7D"/>
		<stop  offset="0.47" style="stop-color:#8379B6"/>
		<stop  offset="0.6404" style="stop-color:#00A3A9"/>
		<stop  offset="0.79" style="stop-color:#8378B5"/>
		<stop  offset="1" style="stop-color:#E02322"/>
	</linearGradient>
	<path id="XMLID_86_" class="st0" d="M4.5,52.4L4.5,52.4c-2.3,0-4.1-1.8-4.1-4.1v-43c0-2.3,1.8-4.1,4.1-4.1h0c2.3,0,4.1,1.8,4.1,4.1
		v43C8.7,50.5,6.8,52.4,4.5,52.4z"/>
	
		<linearGradient id="XMLID_3_" gradientUnits="userSpaceOnUse" x1="-24.888" y1="-16389.3398" x2="105.0841" y2="-16328.3652" gradientTransform="matrix(1 0 0 -1 0 -16330)">
		<stop  offset="0" style="stop-color:#B5100D"/>
		<stop  offset="2.630052e-02" style="stop-color:#C41C1E"/>
		<stop  offset="6.584848e-02" style="stop-color:#D42931"/>
		<stop  offset="0.1066" style="stop-color:#DE313C"/>
		<stop  offset="0.15" style="stop-color:#E13440"/>
		<stop  offset="0.3" style="stop-color:#E98A7D"/>
		<stop  offset="0.47" style="stop-color:#8379B6"/>
		<stop  offset="0.6404" style="stop-color:#00A3A9"/>
		<stop  offset="0.79" style="stop-color:#8378B5"/>
		<stop  offset="1" style="stop-color:#E02322"/>
	</linearGradient>
	<path id="XMLID_85_" class="st1" d="M21,52.4L21,52.4c-2.3,0-4.1-1.8-4.1-4.1V27.3c0-2.3,1.8-4.1,4.1-4.1h0c2.3,0,4.1,1.8,4.1,4.1
		v20.9C25.2,50.5,23.3,52.4,21,52.4z"/>
	
		<linearGradient id="XMLID_4_" gradientUnits="userSpaceOnUse" x1="-25.817" y1="-16406.0352" x2="104.1551" y2="-16345.0605" gradientTransform="matrix(1 0 0 -1 0 -16330)">
		<stop  offset="0" style="stop-color:#B5100D"/>
		<stop  offset="2.630052e-02" style="stop-color:#C41C1E"/>
		<stop  offset="6.584848e-02" style="stop-color:#D42931"/>
		<stop  offset="0.1066" style="stop-color:#DE313C"/>
		<stop  offset="0.15" style="stop-color:#E13440"/>
		<stop  offset="0.3" style="stop-color:#E98A7D"/>
		<stop  offset="0.47" style="stop-color:#8379B6"/>
		<stop  offset="0.6404" style="stop-color:#00A3A9"/>
		<stop  offset="0.79" style="stop-color:#8378B5"/>
		<stop  offset="1" style="stop-color:#E02322"/>
	</linearGradient>
	<path id="XMLID_84_" class="st2" d="M37,52.4L37,52.4c-2.3,0-4.1-1.8-4.1-4.1v-3.4c0-2.3,1.8-4.1,4.1-4.1h0c2.3,0,4.1,1.8,4.1,4.1
		v3.4C41.1,50.5,39.3,52.4,37,52.4z"/>
	
		<linearGradient id="XMLID_5_" gradientUnits="userSpaceOnUse" x1="-12.7774" y1="-16395.332" x2="117.1947" y2="-16334.3574" gradientTransform="matrix(1 0 0 -1 0 -16330)">
		<stop  offset="0" style="stop-color:#B5100D"/>
		<stop  offset="2.630052e-02" style="stop-color:#C41C1E"/>
		<stop  offset="6.584848e-02" style="stop-color:#D42931"/>
		<stop  offset="0.1066" style="stop-color:#DE313C"/>
		<stop  offset="0.15" style="stop-color:#E13440"/>
		<stop  offset="0.3" style="stop-color:#E98A7D"/>
		<stop  offset="0.47" style="stop-color:#8379B6"/>
		<stop  offset="0.6404" style="stop-color:#00A3A9"/>
		<stop  offset="0.79" style="stop-color:#8378B5"/>
		<stop  offset="1" style="stop-color:#E02322"/>
	</linearGradient>
	<path id="XMLID_83_" class="st3" d="M69.5,52.4L69.5,52.4c2.3,0,4.1-1.8,4.1-4.1v-43c0-2.3-1.8-4.1-4.1-4.1h0
		c-2.3,0-4.1,1.8-4.1,4.1v43C65.3,50.5,67.2,52.4,69.5,52.4z"/>
	
		<linearGradient id="XMLID_6_" gradientUnits="userSpaceOnUse" x1="-20.0037" y1="-16402.0313" x2="109.9684" y2="-16341.0566" gradientTransform="matrix(1 0 0 -1 0 -16330)">
		<stop  offset="0" style="stop-color:#B5100D"/>
		<stop  offset="2.630052e-02" style="stop-color:#C41C1E"/>
		<stop  offset="6.584848e-02" style="stop-color:#D42931"/>
		<stop  offset="0.1066" style="stop-color:#DE313C"/>
		<stop  offset="0.15" style="stop-color:#E13440"/>
		<stop  offset="0.3" style="stop-color:#E98A7D"/>
		<stop  offset="0.47" style="stop-color:#8379B6"/>
		<stop  offset="0.6404" style="stop-color:#00A3A9"/>
		<stop  offset="0.79" style="stop-color:#8378B5"/>
		<stop  offset="1" style="stop-color:#E02322"/>
	</linearGradient>
	<path id="XMLID_82_" class="st4" d="M53,52.4L53,52.4c2.3,0,4.1-1.8,4.1-4.1V27.3c0-2.3-1.8-4.1-4.1-4.1h0c-2.3,0-4.1,1.8-4.1,4.1
		v20.9C48.8,50.5,50.7,52.4,53,52.4z"/>
</g>
</svg>
