<?xml version="1.0" encoding="utf-8"?>
<!-- Generator: Adobe Illustrator 21.0.2, SVG Export Plug-In . SVG Version: 6.00 Build 0)  -->
<svg version="1.1" id="Слой_1" xmlns="http://www.w3.org/2000/svg" xmlns:xlink="http://www.w3.org/1999/xlink" x="0px" y="0px"
	 viewBox="0 0 322 53" style="enable-background:new 0 0 322 53;" xml:space="preserve">
<style type="text/css">
	.st0{fill:url(#XMLID_2_);}
	.st1{fill:url(#XMLID_3_);}
	.st2{fill:url(#XMLID_4_);}
	.st3{fill:url(#XMLID_5_);}
	.st4{fill:url(#XMLID_6_);}
	.st5{fill:url(#XMLID_7_);}
	.st6{fill:url(#XMLID_8_);}
	.st7{fill:url(#XMLID_9_);}
	.st8{fill:url(#XMLID_10_);}
	.st9{fill:url(#XMLID_11_);}
</style>
<g id="XMLID_81_">
	
		<linearGradient id="XMLID_2_" gradientUnits="userSpaceOnUse" x1="-20.5447" y1="-16369.9863" x2="111.6961" y2="-16307.9473" gradientTransform="matrix(1 0 0 -1 0 -16330)">
		<stop  offset="0" style="stop-color:#B5100D"/>
		<stop  offset="2.630052e-02" style="stop-color:#C41C1E"/>
		<stop  offset="6.584848e-02" style="stop-color:#D42931"/>
		<stop  offset="0.1066" style="stop-color:#DE313C"/>
		<stop  offset="0.15" style="stop-color:#E13440"/>
		<stop  offset="0.3" style="stop-color:#E98A7D"/>
		<stop  offset="0.47" style="stop-color:#8379B6"/>
		<stop  offset="0.6404" style="stop-color:#00A3A9"/>
		<stop  offset="0.79" style="stop-color:#8378B5"/>
		<stop  offset="1" style="stop-color:#E02322"/>
	</linearGradient>
	<path id="XMLID_86_" class="st0" d="M8.1,52.6L8.1,52.6c-2.3,0-4.2-1.9-4.2-4.2V4.7c0-2.3,1.9-4.2,4.2-4.2h0c2.3,0,4.2,1.9,4.2,4.2
		v43.8C12.3,50.8,10.4,52.6,8.1,52.6z"/>
	
		<linearGradient id="XMLID_3_" gradientUnits="userSpaceOnUse" x1="-21.8393" y1="-16389.7148" x2="110.4015" y2="-16327.6758" gradientTransform="matrix(1 0 0 -1 0 -16330)">
		<stop  offset="0" style="stop-color:#B5100D"/>
		<stop  offset="2.630052e-02" style="stop-color:#C41C1E"/>
		<stop  offset="6.584848e-02" style="stop-color:#D42931"/>
		<stop  offset="0.1066" style="stop-color:#DE313C"/>
		<stop  offset="0.15" style="stop-color:#E13440"/>
		<stop  offset="0.3" style="stop-color:#E98A7D"/>
		<stop  offset="0.47" style="stop-color:#8379B6"/>
		<stop  offset="0.6404" style="stop-color:#00A3A9"/>
		<stop  offset="0.79" style="stop-color:#8378B5"/>
		<stop  offset="1" style="stop-color:#E02322"/>
	</linearGradient>
	<path id="XMLID_85_" class="st1" d="M24.9,52.6L24.9,52.6c-2.3,0-4.2-1.9-4.2-4.2V27.2c0-2.3,1.9-4.2,4.2-4.2h0
		c2.3,0,4.2,1.9,4.2,4.2v21.3C29.1,50.8,27.2,52.6,24.9,52.6z"/>
	
		<linearGradient id="XMLID_4_" gradientUnits="userSpaceOnUse" x1="-22.7845" y1="-16406.7012" x2="109.4563" y2="-16344.6621" gradientTransform="matrix(1 0 0 -1 0 -16330)">
		<stop  offset="0" style="stop-color:#B5100D"/>
		<stop  offset="2.630052e-02" style="stop-color:#C41C1E"/>
		<stop  offset="6.584848e-02" style="stop-color:#D42931"/>
		<stop  offset="0.1066" style="stop-color:#DE313C"/>
		<stop  offset="0.15" style="stop-color:#E13440"/>
		<stop  offset="0.3" style="stop-color:#E98A7D"/>
		<stop  offset="0.47" style="stop-color:#8379B6"/>
		<stop  offset="0.6404" style="stop-color:#00A3A9"/>
		<stop  offset="0.79" style="stop-color:#8378B5"/>
		<stop  offset="1" style="stop-color:#E02322"/>
	</linearGradient>
	<path id="XMLID_84_" class="st2" d="M41.1,52.6L41.1,52.6c-2.3,0-4.2-1.9-4.2-4.2V45c0-2.3,1.9-4.2,4.2-4.2h0
		c2.3,0,4.2,1.9,4.2,4.2v3.4C45.3,50.8,43.4,52.6,41.1,52.6z"/>
	
		<linearGradient id="XMLID_5_" gradientUnits="userSpaceOnUse" x1="-9.5173" y1="-16395.8125" x2="122.7235" y2="-16333.7734" gradientTransform="matrix(1 0 0 -1 0 -16330)">
		<stop  offset="0" style="stop-color:#B5100D"/>
		<stop  offset="2.630052e-02" style="stop-color:#C41C1E"/>
		<stop  offset="6.584848e-02" style="stop-color:#D42931"/>
		<stop  offset="0.1066" style="stop-color:#DE313C"/>
		<stop  offset="0.15" style="stop-color:#E13440"/>
		<stop  offset="0.3" style="stop-color:#E98A7D"/>
		<stop  offset="0.47" style="stop-color:#8379B6"/>
		<stop  offset="0.6404" style="stop-color:#00A3A9"/>
		<stop  offset="0.79" style="stop-color:#8378B5"/>
		<stop  offset="1" style="stop-color:#E02322"/>
	</linearGradient>
	<path id="XMLID_83_" class="st3" d="M74.2,52.6L74.2,52.6c2.3,0,4.2-1.9,4.2-4.2V4.7c0-2.3-1.9-4.2-4.2-4.2h0
		c-2.3,0-4.2,1.9-4.2,4.2v43.8C70,50.8,71.8,52.6,74.2,52.6z"/>
	
		<linearGradient id="XMLID_6_" gradientUnits="userSpaceOnUse" x1="-16.8698" y1="-16402.6289" x2="115.371" y2="-16340.5889" gradientTransform="matrix(1 0 0 -1 0 -16330)">
		<stop  offset="0" style="stop-color:#B5100D"/>
		<stop  offset="2.630052e-02" style="stop-color:#C41C1E"/>
		<stop  offset="6.584848e-02" style="stop-color:#D42931"/>
		<stop  offset="0.1066" style="stop-color:#DE313C"/>
		<stop  offset="0.15" style="stop-color:#E13440"/>
		<stop  offset="0.3" style="stop-color:#E98A7D"/>
		<stop  offset="0.47" style="stop-color:#8379B6"/>
		<stop  offset="0.6404" style="stop-color:#00A3A9"/>
		<stop  offset="0.79" style="stop-color:#8378B5"/>
		<stop  offset="1" style="stop-color:#E02322"/>
	</linearGradient>
	<path id="XMLID_82_" class="st4" d="M57.4,52.6L57.4,52.6c2.3,0,4.2-1.9,4.2-4.2V27.2c0-2.3-1.9-4.2-4.2-4.2h0
		c-2.3,0-4.2,1.9-4.2,4.2v21.3C53.2,50.8,55.1,52.6,57.4,52.6z"/>
</g>
<g id="XMLID_55_">
	
		<linearGradient id="XMLID_7_" gradientUnits="userSpaceOnUse" x1="-55.1738" y1="-16396.4492" x2="364.5791" y2="-16288.4639" gradientTransform="matrix(1 0 0 -1 0 -16330)">
		<stop  offset="0" style="stop-color:#B5100D"/>
		<stop  offset="2.630052e-02" style="stop-color:#C41C1E"/>
		<stop  offset="6.584848e-02" style="stop-color:#D42931"/>
		<stop  offset="0.1066" style="stop-color:#DE313C"/>
		<stop  offset="0.15" style="stop-color:#E13440"/>
		<stop  offset="0.3" style="stop-color:#E98A7D"/>
		<stop  offset="0.47" style="stop-color:#8379B6"/>
		<stop  offset="0.6404" style="stop-color:#00A3A9"/>
		<stop  offset="0.79" style="stop-color:#8378B5"/>
		<stop  offset="1" style="stop-color:#E02322"/>
	</linearGradient>
	<path id="XMLID_75_" class="st5" d="M89.4,9.5c-0.8-1.4-1.2-2.7-1.1-4.1c0.1-1.4,0.8-2.4,2-3.1c1.3-0.7,2.5-0.8,3.7-0.3
		s2.1,1.5,2.9,3.1l13.8,25.5l10.3-25c1.4-3.3,3.3-4.5,5.8-3.6c2.4,0.9,2.9,3,1.6,6.1l-12.6,29.4c-2.3,5.4-4.5,9.2-6.5,11.6
		c-2.1,2.4-4.7,3.6-7.9,3.6c-2.9,0-5.3-0.5-7-1.5c-2.6-1.4-3.4-3.3-2.6-5.6c0.8-2,2.4-2.7,4.7-1.9c0.2,0,0.7,0.2,1.3,0.4
		c0.6,0.2,1.1,0.4,1.6,0.5c0.5,0.1,1,0.1,1.5,0.1c1.2,0,2.3-0.5,3.1-1.5c0.9-1,1.7-2.5,2.5-4.6L89.4,9.5z"/>
	
		<linearGradient id="XMLID_8_" gradientUnits="userSpaceOnUse" x1="-35.0832" y1="-16404.1172" x2="320.5788" y2="-16312.6191" gradientTransform="matrix(1 0 0 -1 0 -16330)">
		<stop  offset="0" style="stop-color:#B5100D"/>
		<stop  offset="2.630052e-02" style="stop-color:#C41C1E"/>
		<stop  offset="6.584848e-02" style="stop-color:#D42931"/>
		<stop  offset="0.1066" style="stop-color:#DE313C"/>
		<stop  offset="0.15" style="stop-color:#E13440"/>
		<stop  offset="0.3" style="stop-color:#E98A7D"/>
		<stop  offset="0.47" style="stop-color:#8379B6"/>
		<stop  offset="0.6404" style="stop-color:#00A3A9"/>
		<stop  offset="0.79" style="stop-color:#8378B5"/>
		<stop  offset="1" style="stop-color:#E02322"/>
	</linearGradient>
	<path id="XMLID_68_" class="st6" d="M156,42.9c1.8-1.4,2.8-3.3,2.8-5.9c0-4.7-3.5-7.1-10.5-7.2h-5.5c-1.1,0-1.9-0.3-2.6-0.9
		c-0.7-0.6-1-1.4-1-2.5c0-1,0.3-1.9,1-2.5c0.7-0.6,1.5-0.9,2.6-0.9h4.5c3.1,0,5.5-0.6,7.3-1.9c1.7-1.3,2.6-3.1,2.6-5.5
		c0-2-0.7-3.7-2.2-4.9c-1.4-1.2-3.6-1.8-6.5-1.8c-2.5,0-5.6,0.6-9.1,1.8c-3,1-4.9,0.7-5.8-1c-0.5-1.1-0.6-2.1-0.1-3.1
		c0.4-1,1.3-1.8,2.6-2.5c3.7-2,8.2-3,13.4-3c5.2,0,9.3,1.1,12.4,3.4c3,2.3,4.6,5.5,4.6,9.8c0,2.4-0.6,4.6-1.9,6.7
		c-1.3,2.1-3.1,3.6-5.6,4.6c2.9,0.8,5.2,2.2,6.8,4.2c1.6,2,2.4,4.4,2.4,7.2c0,5.5-1.8,9.5-5.5,12.1c-3.7,2.6-8.4,3.9-14.1,3.9
		c-5.5,0-10-0.9-13.4-2.7c-1.3-0.7-2.1-1.5-2.6-2.6c-0.5-1-0.5-2.2,0-3.4c0.9-1.9,2.9-2.3,6.2-1.1c3.5,1.3,6.7,2,9.8,2
		C151.6,44.9,154.2,44.3,156,42.9z"/>
	
		<linearGradient id="XMLID_9_" gradientUnits="userSpaceOnUse" x1="-28.4287" y1="-16415.7324" x2="323.3592" y2="-16325.2314" gradientTransform="matrix(1 0 0 -1 0 -16330)">
		<stop  offset="0" style="stop-color:#B5100D"/>
		<stop  offset="2.630052e-02" style="stop-color:#C41C1E"/>
		<stop  offset="6.584848e-02" style="stop-color:#D42931"/>
		<stop  offset="0.1066" style="stop-color:#DE313C"/>
		<stop  offset="0.15" style="stop-color:#E13440"/>
		<stop  offset="0.3" style="stop-color:#E98A7D"/>
		<stop  offset="0.47" style="stop-color:#8379B6"/>
		<stop  offset="0.6404" style="stop-color:#00A3A9"/>
		<stop  offset="0.79" style="stop-color:#8378B5"/>
		<stop  offset="1" style="stop-color:#E02322"/>
	</linearGradient>
	<path id="XMLID_63_" class="st7" d="M176,6.1c0-1.3,0.4-2.4,1.1-3.2c0.8-0.8,1.8-1.2,3.2-1.2c1.4,0,2.4,0.4,3.2,1.2
		c0.8,0.8,1.2,1.9,1.2,3.2v14.2c1.7-0.3,3.8-0.5,6.6-0.5c6,0,10.6,1.3,13.7,3.8c3.1,2.5,4.6,6.7,4.6,12.5c0,5.2-1.7,9.2-5,12
		c-3.3,2.8-7.8,4.2-13.6,4.2c-4.6,0-8.2-0.3-11-0.9c-2.7-0.6-4.1-2.3-4.1-5V6.1z M184.8,28.1v16.1c2.1,0.3,4.2,0.4,6.1,0.4
		c6.4,0,9.6-2.9,9.6-8.6c0-3-0.9-5.2-2.6-6.4c-1.8-1.3-4.2-1.9-7.4-1.9C188.8,27.6,186.9,27.8,184.8,28.1z M216.3,6.2
		c0-1.3,0.4-2.4,1.1-3.2c0.8-0.9,1.8-1.3,3.2-1.3c1.4,0,2.4,0.4,3.2,1.3c0.8,0.9,1.2,1.9,1.2,3.2v41.4c0,1.3-0.4,2.4-1.2,3.2
		c-0.8,0.8-1.8,1.2-3.2,1.2c-1.4,0-2.5-0.4-3.2-1.2c-0.8-0.8-1.1-1.9-1.1-3.2V6.2z"/>
	
		<linearGradient id="XMLID_10_" gradientUnits="userSpaceOnUse" x1="-19.2643" y1="-16427.0957" x2="324.5133" y2="-16338.6563" gradientTransform="matrix(1 0 0 -1 0 -16330)">
		<stop  offset="0" style="stop-color:#B5100D"/>
		<stop  offset="2.630052e-02" style="stop-color:#C41C1E"/>
		<stop  offset="6.584848e-02" style="stop-color:#D42931"/>
		<stop  offset="0.1066" style="stop-color:#DE313C"/>
		<stop  offset="0.15" style="stop-color:#E13440"/>
		<stop  offset="0.3" style="stop-color:#E98A7D"/>
		<stop  offset="0.47" style="stop-color:#8379B6"/>
		<stop  offset="0.6404" style="stop-color:#00A3A9"/>
		<stop  offset="0.79" style="stop-color:#8378B5"/>
		<stop  offset="1" style="stop-color:#E02322"/>
	</linearGradient>
	<path id="XMLID_61_" class="st8" d="M236,6.2c0-1.3,0.4-2.4,1.1-3.2c0.8-0.9,1.8-1.3,3.2-1.3c1.4,0,2.4,0.4,3.2,1.3
		c0.8,0.9,1.2,1.9,1.2,3.2v18.4L262.7,4c2.3-2.7,4.5-3.1,6.5-1.3c1,1,1.4,2,1.2,3.2c-0.2,1.2-0.7,2.3-1.7,3.3L253.1,26l16.6,17.6
		c1.1,1.2,1.8,2.4,2,3.6c0.2,1.2-0.2,2.4-1.1,3.4c-2.1,2.1-4.5,1.8-7.1-0.9L244.8,29v18.5c0,1.3-0.4,2.4-1.2,3.2
		c-0.8,0.8-1.8,1.2-3.2,1.2c-1.4,0-2.5-0.4-3.2-1.2c-0.8-0.8-1.1-1.9-1.1-3.2V6.2z"/>
	
		<linearGradient id="XMLID_11_" gradientUnits="userSpaceOnUse" x1="-35.8678" y1="-16444.3066" x2="320.1841" y2="-16352.709" gradientTransform="matrix(1 0 0 -1 0 -16330)">
		<stop  offset="0" style="stop-color:#B5100D"/>
		<stop  offset="2.630052e-02" style="stop-color:#C41C1E"/>
		<stop  offset="6.584848e-02" style="stop-color:#D42931"/>
		<stop  offset="0.1066" style="stop-color:#DE313C"/>
		<stop  offset="0.15" style="stop-color:#E13440"/>
		<stop  offset="0.3" style="stop-color:#E98A7D"/>
		<stop  offset="0.47" style="stop-color:#8379B6"/>
		<stop  offset="0.6404" style="stop-color:#00A3A9"/>
		<stop  offset="0.79" style="stop-color:#8378B5"/>
		<stop  offset="1" style="stop-color:#E02322"/>
	</linearGradient>
	<path id="XMLID_57_" class="st9" d="M306.1,37.8h-18.8l-3.8,10.3c-1.2,3.5-3.2,4.7-6,3.6c-2.1-0.9-2.6-2.9-1.5-6l16.4-41.2
		c0.9-2.4,2.4-3.6,4.5-3.6c1.9,0,3.4,1,4.2,3.1l16.9,41.5c0.5,1.1,0.6,2.2,0.3,3.5c-0.3,1.3-1.1,2.1-2.3,2.6
		c-1.4,0.5-2.6,0.4-3.6-0.1c-1-0.6-1.8-1.5-2.4-3L306.1,37.8z M289.6,30.9h13.9l-7.1-18.4L289.6,30.9z"/>
</g>
</svg>
